<svg width="24" height="24" viewBox="0 0 24 24" fill="none" xmlns="http://www.w3.org/2000/svg">
<path d="M17.1055 9.60307C16.9752 9.71122 16.7778 9.61853 16.7778 9.44915V6.08333C16.7778 5.79602 16.6666 5.52047 16.4686 5.3173C16.2707 5.11414 16.0022 5 15.7222 5H3.05556C2.7756 5 2.50712 5.11414 2.30917 5.3173C2.11121 5.52047 2 5.79602 2 6.08333V16.9167C2 17.204 2.11121 17.4795 2.30917 17.6827C2.50712 17.8859 2.7756 18 3.05556 18H15.7222C16.0022 18 16.2707 17.8859 16.4686 17.6827C16.6666 17.4795 16.7778 17.204 16.7778 16.9167V13.5508C16.7778 13.3815 16.9752 13.2888 17.1055 13.3969L21.5084 17.0504C21.7039 17.2127 22 17.0736 22 16.8196V6.18044C22 5.92638 21.7039 5.78733 21.5084 5.94957L17.1055 9.60307Z" fill="white"/>
</svg>
