<svg width="40" height="41" viewBox="0 0 40 41" fill="none" xmlns="http://www.w3.org/2000/svg">
<circle cx="20" cy="20.002" r="20" fill="#01859c"/>
<path d="M29.502 20.8551C29.6815 20.6715 29.8202 20.4559 29.9099 20.2085C30.0568 19.7694 29.9997 19.2585 29.9099 18.979C29.7468 18.524 29.4041 18.1408 28.9554 17.9332L14.711 11.1873C13.7728 10.7403 12.647 11.1315 12.1901 12.0416C11.9617 12.5126 11.9372 13.0554 12.133 13.5344L14.3602 18.9711L27.6093 19.2505C28.5393 19.2664 29.3796 19.9211 29.4939 20.8232C29.502 20.8391 29.502 20.8471 29.502 20.8551Z" fill="white"/>
<path d="M29.502 18.145C29.6815 18.3286 29.8202 18.5442 29.9099 18.7917C30.0568 19.2307 29.9997 19.7417 29.9099 20.0211C29.7468 20.4761 29.4041 20.8593 28.9554 21.0669L14.711 27.8128C13.7728 28.2598 12.647 27.8687 12.1901 26.9586C11.9617 26.4876 11.9372 25.9447 12.133 25.4657L14.3602 20.0291L27.6093 19.7497C28.5393 19.7337 29.3796 19.0791 29.4939 18.1769C29.502 18.161 29.502 18.153 29.502 18.145Z" fill="white"/>
</svg>
